# xmcd CD database file
#
# Track frame offsets:
#	150
#	80910
#	116967
#	145927
#	172857
#	202032
#
# Disc length: 3097 seconds
#
# Revision: 0
# Processed by: cddbd v1.4PL0 Copyright (c) Steve Scherf et al.
# Submitted via: CDex 1.50Beta7
#
DISCID=560c1706
DTITLE=Chamber Jazz Septet - Chamber Jazz Septet
DYEAR=1900
DGENRE=Jazz
TTITLE0=Nutcracker Suite (Tchaikowsky)
TTITLE1=Etude op.10 no.3 (Chopin)
TTITLE2=Clair De Lune (Debussy)
TTITLE3=Pavane (Ravel)
TTITLE4=Full Moon and Empty Arms (Rachmaninoff)
TTITLE5=Jesu, Joy Of Man's Desiring (Bach)
EXTD=
EXTT0=
EXTT1=
EXTT2=
EXTT3=
EXTT4=
EXTT5=
PLAYORDER=
